<svg width="128" height="107" viewBox="0 0 128 107" fill="none" xmlns="http://www.w3.org/2000/svg">
<mask id="mask0_212_35" style="mask-type:luminance" maskUnits="userSpaceOnUse" x="0" y="0" width="128" height="108">
<path d="M74.1246 107H0L3.04363 102.828C13.5433 88.4394 19.094 71.3826 19.094 53.5C19.094 35.6174 13.5433 18.5606 3.04363 4.17225L0 0H74.1246C88.4027 0 101.82 5.5642 111.909 15.6721C122.002 25.7728 127.56 39.2091 127.56 53.5036C127.56 83.0015 103.589 107.004 74.1246 107.004V107ZM10.1467 101.753H74.1246C100.7 101.753 122.319 80.1094 122.319 53.5036C122.319 40.6118 117.305 28.4954 108.203 19.3828C99.1005 10.2702 87.0016 5.25047 74.1246 5.25047H10.1467C19.447 19.6244 24.3384 36.2016 24.3384 53.5036C24.3384 70.8056 19.447 87.3793 10.1467 101.753Z" fill="white"/>
</mask>
<g mask="url(#mask0_212_35)">
<path d="M11.7493 5.24707H10.1465V101.75H11.7493V5.24707Z" fill="#E6B916"/>
<path d="M13.428 5.24707H11.7495V101.75H13.428V5.24707Z" fill="#E5B817"/>
<path d="M15.1067 5.24707H13.4282V101.75H15.1067V5.24707Z" fill="#E5B717"/>
<path d="M16.785 5.24707H15.1064V101.75H16.785V5.24707Z" fill="#E4B618"/>
<path d="M18.4637 5.24707H16.7852V101.75H18.4637V5.24707Z" fill="#E3B518"/>
<path d="M20.1419 5.24707H18.4634V101.75H20.1419V5.24707Z" fill="#E3B419"/>
<path d="M21.8206 5.24707H20.1421V101.75H21.8206V5.24707Z" fill="#E2B319"/>
<path d="M23.4993 5.24707H21.8208V101.75H23.4993V5.24707Z" fill="#E1B219"/>
<path d="M25.1775 5.24707H23.499V101.75H25.1775V5.24707Z" fill="#E1B11A"/>
<path d="M26.8562 5.24707H25.1777V101.75H26.8562V5.24707Z" fill="#E0B01A"/>
<path d="M28.5345 5.24707H26.856V101.75H28.5345V5.24707Z" fill="#DFAF1B"/>
<path d="M30.2132 5.24707H28.5347V101.75H30.2132V5.24707Z" fill="#DFAE1B"/>
<path d="M31.8919 5.24707H30.2134V101.75H31.8919V5.24707Z" fill="#DEAD1B"/>
<path d="M33.5701 5.24707H31.8916V101.75H33.5701V5.24707Z" fill="#DDAC1C"/>
<path d="M35.2488 5.24707H33.5703V101.75H35.2488V5.24707Z" fill="#DDAB1C"/>
<path d="M36.9271 5.24707H35.2485V101.75H36.9271V5.24707Z" fill="#DCAA1D"/>
<path d="M38.6023 5.24707H36.9238V101.75H38.6023V5.24707Z" fill="#DBA91D"/>
<path d="M40.2805 5.24707H38.6021V101.75H40.2805V5.24707Z" fill="#DBA81E"/>
<path d="M41.9593 5.24707H40.2808V101.75H41.9593V5.24707Z" fill="#DAA71E"/>
<path d="M43.6375 5.24707H41.959V101.75H43.6375V5.24707Z" fill="#D9A61E"/>
<path d="M45.3162 5.24707H43.6377V101.75H45.3162V5.24707Z" fill="#D9A51F"/>
<path d="M46.9944 5.24707H45.3159V101.75H46.9944V5.24707Z" fill="#D8A41F"/>
<path d="M48.6732 5.24707H46.9946V101.75H48.6732V5.24707Z" fill="#D7A320"/>
<path d="M50.3519 5.24707H48.6733V101.75H50.3519V5.24707Z" fill="#D7A220"/>
<path d="M52.03 5.24707H50.3516V101.75H52.03V5.24707Z" fill="#D6A120"/>
<path d="M53.7088 5.24707H52.0303V101.75H53.7088V5.24707Z" fill="#D5A021"/>
<path d="M55.387 5.24707H53.7085V101.75H55.387V5.24707Z" fill="#D59F21"/>
<path d="M57.0657 5.24707H55.3872V101.75H57.0657V5.24707Z" fill="#D49E22"/>
<path d="M58.7444 5.24707H57.0659V101.75H58.7444V5.24707Z" fill="#D39D22"/>
<path d="M60.4227 5.24707H58.7441V101.75H60.4227V5.24707Z" fill="#D39C22"/>
<path d="M62.1014 5.24707H60.4229V101.75H62.1014V5.24707Z" fill="#D29B23"/>
<path d="M63.7796 5.24707H62.1011V101.75H63.7796V5.24707Z" fill="#D19A23"/>
<path d="M65.4583 5.24707H63.7798V101.75H65.4583V5.24707Z" fill="#D19824"/>
<path d="M67.1365 5.24707H65.458V101.75H67.1365V5.24707Z" fill="#D09724"/>
<path d="M68.8152 5.24707H67.1367V101.75H68.8152V5.24707Z" fill="#CF9625"/>
<path d="M70.4939 5.24707H68.8154V101.75H70.4939V5.24707Z" fill="#CF9525"/>
<path d="M72.1722 5.24707H70.4937V101.75H72.1722V5.24707Z" fill="#CE9425"/>
<path d="M73.8509 5.24707H72.1724V101.75H73.8509V5.24707Z" fill="#CD9326"/>
<path d="M75.5291 5.24707H73.8506V101.75H75.5291V5.24707Z" fill="#CD9226"/>
<path d="M77.2078 5.24707H75.5293V101.75H77.2078V5.24707Z" fill="#CC9127"/>
<path d="M78.8865 5.24707H77.208V101.75H78.8865V5.24707Z" fill="#CB9027"/>
<path d="M80.5648 5.24707H78.8862V101.75H80.5648V5.24707Z" fill="#CB8F27"/>
<path d="M82.2434 5.24707H80.5649V101.75H82.2434V5.24707Z" fill="#CA8E28"/>
<path d="M83.9217 5.24707H82.2432V101.75H83.9217V5.24707Z" fill="#C98D28"/>
<path d="M85.6004 5.24707H83.9219V101.75H85.6004V5.24707Z" fill="#C98C29"/>
<path d="M87.2791 5.24707H85.6006V101.75H87.2791V5.24707Z" fill="#C88B29"/>
<path d="M88.9573 5.24707H87.2788V101.75H88.9573V5.24707Z" fill="#C78A29"/>
<path d="M90.636 5.24707H88.9575V101.75H90.636V5.24707Z" fill="#C7892A"/>
<path d="M92.3143 5.24707H90.6357V101.75H92.3143V5.24707Z" fill="#C6882A"/>
<path d="M93.9929 5.24707H92.3145V101.75H93.9929V5.24707Z" fill="#C5872B"/>
<path d="M95.6712 5.24707H93.9927V101.75H95.6712V5.24707Z" fill="#C5862B"/>
<path d="M97.3499 5.24707H95.6714V101.75H97.3499V5.24707Z" fill="#C4852C"/>
<path d="M99.0286 5.24707H97.3501V101.75H99.0286V5.24707Z" fill="#C3842C"/>
<path d="M100.707 5.24707H99.0283V101.75H100.707V5.24707Z" fill="#C3832C"/>
<path d="M102.386 5.24707H100.707V101.75H102.386V5.24707Z" fill="#C2822D"/>
<path d="M104.064 5.24707H102.385V101.75H104.064V5.24707Z" fill="#C1812D"/>
<path d="M105.742 5.24707H104.064V101.75H105.742V5.24707Z" fill="#C1802E"/>
<path d="M107.421 5.24707H105.743V101.75H107.421V5.24707Z" fill="#C07F2E"/>
<path d="M109.099 5.24707H107.421V101.75H109.099V5.24707Z" fill="#BF7E2E"/>
<path d="M110.778 5.24707H109.1V101.75H110.778V5.24707Z" fill="#BF7D2F"/>
<path d="M112.456 5.24707H110.778V101.75H112.456V5.24707Z" fill="#BE7C2F"/>
<path d="M114.135 5.24707H112.457V101.75H114.135V5.24707Z" fill="#BD7B30"/>
<path d="M115.814 5.24707H114.135V101.75H115.814V5.24707Z" fill="#BD7A30"/>
<path d="M117.492 5.24707H115.813V101.75H117.492V5.24707Z" fill="#BC7931"/>
<path d="M119.171 5.24707H117.492V101.75H119.171V5.24707Z" fill="#BB7831"/>
<path d="M120.849 5.24707H119.17V101.75H120.849V5.24707Z" fill="#BB7731"/>
<path d="M122.319 5.24707H120.849V101.75H122.319V5.24707Z" fill="#BA7632"/>
<path d="M1.67852 0H0V107H1.67852V0Z" fill="#EABF14"/>
<path d="M3.35719 0H1.67871V107H3.35719V0Z" fill="#E9BE14"/>
<path d="M5.03546 0H3.35693V107H5.03546V0Z" fill="#E9BD15"/>
<path d="M6.71417 0H5.03564V107H6.71417V0Z" fill="#E8BC15"/>
<path d="M8.39239 0H6.71387V107H8.39239V0Z" fill="#E7BB16"/>
<path d="M10.0711 0H8.39258V107H10.0711V0Z" fill="#E7BA16"/>
<path d="M11.7493 0H10.0708V107H11.7493V0Z" fill="#E6B916"/>
<path d="M13.428 0H11.7495V107H13.428V0Z" fill="#E5B817"/>
<path d="M15.1067 0H13.4282V107H15.1067V0Z" fill="#E5B717"/>
<path d="M16.785 0H15.1064V107H16.785V0Z" fill="#E4B618"/>
<path d="M18.4637 0H16.7852V107H18.4637V0Z" fill="#E3B518"/>
<path d="M20.1419 0H18.4634V107H20.1419V0Z" fill="#E3B419"/>
<path d="M21.8206 0H20.1421V107H21.8206V0Z" fill="#E2B319"/>
<path d="M23.4993 0H21.8208V107H23.4993V0Z" fill="#E1B219"/>
<path d="M25.1775 0H23.499V107H25.1775V0Z" fill="#E1B11A"/>
<path d="M26.8562 0H25.1777V107H26.8562V0Z" fill="#E0B01A"/>
<path d="M28.5345 0H26.856V107H28.5345V0Z" fill="#DFAF1B"/>
<path d="M30.2132 0H28.5347V107H30.2132V0Z" fill="#DFAE1B"/>
<path d="M31.8919 0H30.2134V107H31.8919V0Z" fill="#DEAD1B"/>
<path d="M33.5701 0H31.8916V107H33.5701V0Z" fill="#DDAC1C"/>
<path d="M35.2488 0H33.5703V107H35.2488V0Z" fill="#DDAB1C"/>
<path d="M36.9271 0H35.2485V107H36.9271V0Z" fill="#DCAA1D"/>
<path d="M38.6023 0H36.9238V107H38.6023V0Z" fill="#DBA91D"/>
<path d="M40.2805 0H38.6021V107H40.2805V0Z" fill="#DBA81E"/>
<path d="M41.9593 0H40.2808V107H41.9593V0Z" fill="#DAA71E"/>
<path d="M43.6375 0H41.959V107H43.6375V0Z" fill="#D9A61E"/>
<path d="M45.3162 0H43.6377V107H45.3162V0Z" fill="#D9A51F"/>
<path d="M46.9944 0H45.3159V107H46.9944V0Z" fill="#D8A41F"/>
<path d="M48.6732 0H46.9946V107H48.6732V0Z" fill="#D7A320"/>
<path d="M50.3519 0H48.6733V107H50.3519V0Z" fill="#D7A220"/>
<path d="M52.03 0H50.3516V107H52.03V0Z" fill="#D6A120"/>
<path d="M53.7088 0H52.0303V107H53.7088V0Z" fill="#D5A021"/>
<path d="M55.387 0H53.7085V107H55.387V0Z" fill="#D59F21"/>
<path d="M57.0657 0H55.3872V107H57.0657V0Z" fill="#D49E22"/>
<path d="M58.7444 0H57.0659V107H58.7444V0Z" fill="#D39D22"/>
<path d="M60.4227 0H58.7441V107H60.4227V0Z" fill="#D39C22"/>
<path d="M62.1014 0H60.4229V107H62.1014V0Z" fill="#D29B23"/>
<path d="M63.7796 0H62.1011V107H63.7796V0Z" fill="#D19A23"/>
<path d="M65.4583 0H63.7798V107H65.4583V0Z" fill="#D19824"/>
<path d="M67.1365 0H65.458V107H67.1365V0Z" fill="#D09724"/>
<path d="M68.8152 0H67.1367V107H68.8152V0Z" fill="#CF9625"/>
<path d="M70.4939 0H68.8154V107H70.4939V0Z" fill="#CF9525"/>
<path d="M72.1722 0H70.4937V107H72.1722V0Z" fill="#CE9425"/>
<path d="M73.8509 0H72.1724V107H73.8509V0Z" fill="#CD9326"/>
<path d="M75.5291 0H73.8506V107H75.5291V0Z" fill="#CD9226"/>
<path d="M77.2078 0H75.5293V107H77.2078V0Z" fill="#CC9127"/>
<path d="M78.8865 0H77.208V107H78.8865V0Z" fill="#CB9027"/>
<path d="M80.5648 0H78.8862V107H80.5648V0Z" fill="#CB8F27"/>
<path d="M82.2434 0H80.5649V107H82.2434V0Z" fill="#CA8E28"/>
<path d="M83.9217 0H82.2432V107H83.9217V0Z" fill="#C98D28"/>
<path d="M85.6004 0H83.9219V107H85.6004V0Z" fill="#C98C29"/>
<path d="M87.2791 0H85.6006V107H87.2791V0Z" fill="#C88B29"/>
<path d="M88.9573 0H87.2788V107H88.9573V0Z" fill="#C78A29"/>
<path d="M90.636 0H88.9575V107H90.636V0Z" fill="#C7892A"/>
<path d="M92.3143 0H90.6357V107H92.3143V0Z" fill="#C6882A"/>
<path d="M93.9929 0H92.3145V107H93.9929V0Z" fill="#C5872B"/>
<path d="M95.6712 0H93.9927V107H95.6712V0Z" fill="#C5862B"/>
<path d="M97.3499 0H95.6714V107H97.3499V0Z" fill="#C4852C"/>
<path d="M99.0286 0H97.3501V107H99.0286V0Z" fill="#C3842C"/>
<path d="M100.707 0H99.0283V107H100.707V0Z" fill="#C3832C"/>
<path d="M102.386 0H100.707V107H102.386V0Z" fill="#C2822D"/>
<path d="M104.064 0H102.385V107H104.064V0Z" fill="#C1812D"/>
<path d="M105.742 0H104.064V107H105.742V0Z" fill="#C1802E"/>
<path d="M107.421 0H105.743V107H107.421V0Z" fill="#C07F2E"/>
<path d="M109.099 0H107.421V107H109.099V0Z" fill="#BF7E2E"/>
<path d="M110.778 0H109.1V107H110.778V0Z" fill="#BF7D2F"/>
<path d="M112.456 0H110.778V107H112.456V0Z" fill="#BE7C2F"/>
<path d="M114.135 0H112.457V107H114.135V0Z" fill="#BD7B30"/>
<path d="M115.814 0H114.135V107H115.814V0Z" fill="#BD7A30"/>
<path d="M117.492 0H115.813V107H117.492V0Z" fill="#BC7931"/>
<path d="M119.171 0H117.492V107H119.171V0Z" fill="#BB7831"/>
<path d="M120.849 0H119.17V107H120.849V0Z" fill="#BB7731"/>
<path d="M122.528 0H120.849V107H122.528V0Z" fill="#BA7632"/>
<path d="M124.206 0H122.528V107H124.206V0Z" fill="#B97532"/>
<path d="M125.885 0H124.206V107H125.885V0Z" fill="#B97433"/>
<path d="M127.563 0H125.885V107H127.563V0Z" fill="#B87333"/>
</g>
</svg>
